<svg xmlns="http://www.w3.org/2000/svg" viewBox="0 0 512 164.55"><defs><style>.a{fill:#e00;}.b{fill:#fff;}.c{fill:#75c5f0;}.d{opacity:0.49;}.e{opacity:0.75;}.f{fill:#326ce5;}.g{fill:#518db5;}.h{fill:#3d647f;}.i{fill:#273945;}.j{fill:#161a1d;}.k{fill:#326de6;}.l{fill:#326de5;}</style></defs><path d="M258.64,217.92h2.95l6.86,16.78h-2.74l-1.94-4.91h-7.51l-2,4.91h-2.62ZM263,227.7,260,220.34l-2.92,7.36Z" transform="translate(5.68 -167.9)"/><path d="M269.88,222.5h2.4v1.22a5,5,0,0,1,3.67-1.47,4.56,4.56,0,0,1,4.77,4.78v7.67h-2.4v-7.26a2.84,2.84,0,0,0-3-3.1,3.44,3.44,0,0,0-3,1.59v8.77h-2.4Z" transform="translate(5.68 -167.9)"/><path d="M283.63,231.54a6.42,6.42,0,0,0,4,1.53c1.73,0,2.93-.74,2.93-1.82,0-.86-.62-1.37-2-1.56l-2.2-.31c-2.43-.36-3.66-1.49-3.66-3.38,0-2.21,1.92-3.69,4.77-3.69a8.43,8.43,0,0,1,4.92,1.55l-1.23,1.59a6.69,6.69,0,0,0-3.85-1.27c-1.46,0-2.44.68-2.44,1.66s.57,1.32,2,1.53l2.21.31c2.42.36,3.69,1.51,3.69,3.41,0,2.18-2.21,3.84-5.11,3.84a8.08,8.08,0,0,1-5.35-1.8Z" transform="translate(5.68 -167.9)"/><path d="M294.36,219.05a1.48,1.48,0,0,1,1.46-1.49h0a1.49,1.49,0,1,1-1.46,1.51v0ZM297,234.7h-2.4V222.5H297Z" transform="translate(5.68 -167.9)"/><path d="M305.92,234.89a6.08,6.08,0,0,1-3.69-1.22v1h-2.37V217.92l2.39-.53v6.26a5.63,5.63,0,0,1,3.72-1.34,6.29,6.29,0,0,1-.05,12.58Zm-3.67-9v5.52a4.53,4.53,0,0,0,3.41,1.44,4.21,4.21,0,0,0,0-8.42A4.42,4.42,0,0,0,302.25,225.85Z" transform="translate(5.68 -167.9)"/><path d="M316.81,234.7h-2.4V217.92l2.4-.53Z" transform="translate(5.68 -167.9)"/><path d="M325.49,234.92a6.28,6.28,0,0,1-6.4-6.33,6.12,6.12,0,0,1,6.11-6.28c3.36,0,5.9,2.78,5.9,6.38v.69h-9.64a4.12,4.12,0,0,0,4.13,3.5,4.72,4.72,0,0,0,3.09-1.08l1.52,1.51A7.31,7.31,0,0,1,325.49,234.92Zm-4-7.34h7.25a3.65,3.65,0,0,0-7.25,0Z" transform="translate(5.68 -167.9)"/><path d="M334.66,205.83c0,2.74,1.64,4.07,4.65,4.07a12,12,0,0,0,2.74-.38v-3.18a5.58,5.58,0,0,1-1.77.26c-1.23,0-1.7-.38-1.7-1.55v-4.87h3.59v-3.27h-3.59v-4.15l-3.92.85v3.3h-2.6v3.27h2.6Zm-12.21.07c0-.85.85-1.26,2.13-1.26a10.11,10.11,0,0,1,2.33.29v1.65a5,5,0,0,1-2.45.61c-1.26,0-2-.49-2-1.29m1.2,4a6,6,0,0,0,3.54-1v.77h3.88v-8.22c0-3.13-2.11-4.84-5.63-4.84a14.25,14.25,0,0,0-6,1.41l1.4,2.88a10.56,10.56,0,0,1,3.88-1c1.63,0,2.45.64,2.45,1.92v.63a11,11,0,0,0-2.91-.36c-3.29,0-5.28,1.38-5.28,3.85,0,2.26,1.79,4,4.65,4m-21.31-.23h4.17v-6.64h7v6.64h4.17v-17h-4.17v6.52h-7v-6.52h-4.17Zm-15.89-6.42a3.25,3.25,0,0,1,3.37-3.25,4,4,0,0,1,2.72,1v4.49a3.8,3.8,0,0,1-2.72,1,3.27,3.27,0,0,1-3.37-3.25m6.14,6.42h3.88V191.9l-3.92.85v4.84A6.61,6.61,0,1,0,289,209.91h.11a5.78,5.78,0,0,0,3.45-1.12Zm-17.8-9.84a2.84,2.84,0,0,1,2.69,2H272.1a2.66,2.66,0,0,1,2.66-2m-6.6,3.44a6.73,6.73,0,0,0,7,6.65A7.73,7.73,0,0,0,280.5,208l-2.59-2.31a3.49,3.49,0,0,1-2.57,1,3.33,3.33,0,0,1-3.16-2h9.14v-1c0-4.07-2.74-7-6.47-7a6.58,6.58,0,0,0-6.69,6.48v.16m-6.76-7a1.93,1.93,0,1,1,0,3.84h-4.13v-3.84Zm-8.3,13.41h4.17v-6.18h3.18l3.2,6.18h4.65l-3.73-6.79a5.13,5.13,0,0,0,3.2-4.77c0-3.06-2.4-5.41-6-5.41H253.1Z" transform="translate(5.68 -167.9)"/><circle class="a" cx="233.1" cy="33.04" r="17.57"/><path class="b" d="M235.8,207.91l-7-16.83a1.12,1.12,0,0,0-1.08-.74,1.15,1.15,0,0,0-1.11.74l-7.68,18.46h2.62l3-7.6,9.07,7.32a1.47,1.47,0,0,0,1,.43,1.25,1.25,0,0,0,1.28-1.23v0A1.63,1.63,0,0,0,235.8,207.91Zm-8.07-13.8,4.54,11.22-6.87-5.41Z" transform="translate(5.68 -167.9)"/><path class="c" d="M50.2,304.76c-5.3-7.6-9.29-15.72-9.87-25.17a14.77,14.77,0,0,1,1.21-7.15c.72-1.6,1.69-3.15,3.38-3.65,2.11-.61,3.21-2.54,5.15-3.15a4,4,0,0,1,2.52,0,4.62,4.62,0,0,1,1.12.48,4.42,4.42,0,0,1,2.07,4.51,4.49,4.49,0,0,1-3.51,3.53,4.36,4.36,0,0,1-4.55-2c-.88-1.35-1.4-1.42-2.57-.2-1.82,1.9-2.19,4.33-2.21,6.79,0,5.33,1.51,10.3,3.62,15.12a51,51,0,0,0,5.84,10.16,26.89,26.89,0,0,1,2,2.45c.67-.08-.4.45.12.31.69.75,1.4,1.55,2.13,2.32.32.34.78.66.17,1.06-.44.3-.88,1.21-1.52.41" transform="translate(5.68 -167.9)"/><g class="d"><path class="c" d="M58.08,281.91a61,61,0,0,0-11.55,1.28c-.51.11-1.3.92-1.6-.35-.24-1,.24-1.39,1.17-1.62a56.16,56.16,0,0,1,18.45-1.28A40.71,40.71,0,0,1,79,283.62a15.37,15.37,0,0,1,6.93,5.85,6.22,6.22,0,0,1,.92,2.36,49.09,49.09,0,0,1,.15,7,4.34,4.34,0,0,1-8.67-.33,4.22,4.22,0,0,1,4.28-4.36c1.78.06,1.71-.86,1.47-2a7.64,7.64,0,0,0-3.16-4.32c-3.67-2.77-8-4.09-12.38-5a59,59,0,0,0-10.46-1Z" transform="translate(5.68 -167.9)"/></g><g class="e"><path class="c" d="M64.39,308.75c-3,3.4-6.22,6.51-10.38,8.42-3.88,1.78-7.75,2.43-11.14-1.11a2.17,2.17,0,0,0-1.39-.49,4.36,4.36,0,0,1-3.5-5.46,4.3,4.3,0,0,1,5.76-3c2.21.92,3.91,3.77,2.3,6.15-1.09,1.6-.07,1.88,1,2.25a7.63,7.63,0,0,0,5.15-.5A19.31,19.31,0,0,0,58,311.51c7.54-6.37,12.41-14.48,15.55-23.74.19-.53-.15-1.66,1.2-1.27s1,1.11.7,2a55.72,55.72,0,0,1-9.08,17.79" transform="translate(5.68 -167.9)"/></g><g class="d"><path class="c" d="M31.08,293.09c.15-3.81,2.64-6,5.46-7.95a4.74,4.74,0,0,1,1.18-.67c.42-.15.9-1,1.33-.12.3.65.45,1.35-.52,1.83A14.15,14.15,0,0,0,35,288.75c-2.71,2.62-2.87,5.74-.41,8.61A14,14,0,0,0,39,300.73c.73.37,1.17.89.79,1.59s-1,0-1.42-.19A14.66,14.66,0,0,1,32,296.65a7.09,7.09,0,0,1-.93-3.56Z" transform="translate(5.68 -167.9)"/></g><g class="e"><path class="c" d="M77,279c0,.24.2,1.59-.69,1.59-1.08,0-1.32-.71-1.27-1.74a12,12,0,0,0-.68-4.85,5.62,5.62,0,0,0-6.54-3.87,13.46,13.46,0,0,0-5.64,2.25c-.69.47-1.35.55-1.73-.13s.49-.88.89-1.14a15.13,15.13,0,0,1,6.56-2.63A7.46,7.46,0,0,1,76.25,274a21.37,21.37,0,0,1,.71,5Z" transform="translate(5.68 -167.9)"/></g><path class="c" d="M76.75,308a13.37,13.37,0,0,1-.86,5.16,7.48,7.48,0,0,1-9.33,4.72,18,18,0,0,1-5-2.15c-.33-.21-1.25-.28-.62-1,.39-.45.83-1.16,1.69-.56A15,15,0,0,0,66.82,316a5.82,5.82,0,0,0,7.69-3.92,14.08,14.08,0,0,0,.74-5.35c0-.76-.08-1.67.94-1.63s.42,1,.54,1.48a6.17,6.17,0,0,1,0,1.36Z" transform="translate(5.68 -167.9)"/><g class="e"><path class="c" d="M43.07,296.7c.79.51.62,1.13.43,1.73a35.06,35.06,0,0,0-1.45,6.65c0,.36,0,.94-.54.86s-.33-.64-.3-1A34,34,0,0,1,43.07,296.7Z" transform="translate(5.68 -167.9)"/></g><path class="c" d="M63.69,277.9a1.16,1.16,0,0,1-1.6-.32,34.26,34.26,0,0,0-5.38-4.9c-.26-.18-.66-.39-.4-.78s.6-.1.86.08A36,36,0,0,1,63.69,277.9Z" transform="translate(5.68 -167.9)"/><g class="d"><path class="c" d="M69.56,305.15c.09-1.07.74-1.18,1.35-1.32a35.91,35.91,0,0,0,6.48-2.06c.36-.15.9-.6,1.15.05s-.45.55-.75.69a39.22,39.22,0,0,1-8.23,2.64Z" transform="translate(5.68 -167.9)"/></g><g class="e"><path class="c" d="M46.59,290.8c-.56-2.29,1.72-6.28,3.71-6.51C49.17,286.19,47.81,288.73,46.59,290.8Z" transform="translate(5.68 -167.9)"/></g><path class="c" d="M70.75,290.31,67.6,284.7C69.55,284.86,71.61,288.32,70.75,290.31Z" transform="translate(5.68 -167.9)"/><g class="e"><path class="c" d="M53.58,277.94c.9-.95,1.69-1.76,2.44-2.59.44-.5.84-.45,1.27,0s-.07.81-.35,1.06c-.88.8-1.52,2.09-3.36,1.53Z" transform="translate(5.68 -167.9)"/></g><path class="c" d="M74.52,296.39a15.24,15.24,0,0,1,1.15,3.39c.16.51,0,.87-.5,1.05s-.79-.23-.87-.7C74.09,298.92,73.18,297.68,74.52,296.39Z" transform="translate(5.68 -167.9)"/><g class="d"><path class="c" d="M48.27,305.4c-1.34-.34-2.53-.64-3.72-.92-.57-.14-.71-.46-.54-1s.54-.49.94-.35C46.17,303.56,47.71,303.47,48.27,305.4Z" transform="translate(5.68 -167.9)"/></g><path class="f" d="M69.05,295.45l-.17,0a4.9,4.9,0,0,0-.54,0,5.76,5.76,0,0,1-1-.17.72.72,0,0,1-.25-.24l-.22-.07a7.4,7.4,0,0,0-1.18-5.09l.2-.18a.47.47,0,0,1,.1-.32,5.6,5.6,0,0,1,.85-.59c.16-.08.31-.17.47-.27l.12-.1a.58.58,0,0,0,.17-.79.57.57,0,0,0-.78-.17.31.31,0,0,0-.09.07l-.13.1a4.61,4.61,0,0,0-.37.4,5.65,5.65,0,0,1-.77.69.64.64,0,0,1-.34,0l-.21.16a7.41,7.41,0,0,0-4.7-2.27c0-.07,0-.21,0-.25A.43.43,0,0,1,60,286a5,5,0,0,1,.06-1,5,5,0,0,0,.08-.54v-.16a.57.57,0,1,0-1.13-.11.21.21,0,0,0,0,.11v0a.65.65,0,0,0,0,.14,5,5,0,0,0,.07.54,5.05,5.05,0,0,1,.07,1,.7.7,0,0,1-.19.29v.24a8.35,8.35,0,0,0-1,.15,7.34,7.34,0,0,0-3.7,2.11l-.2-.14a.5.5,0,0,1-.34,0,6.23,6.23,0,0,1-.76-.69c-.12-.14-.24-.27-.37-.4l-.13-.1a.7.7,0,0,0-.39-.15.59.59,0,0,0-.45.2.61.61,0,0,0,.14.84h0l.11.1a4.39,4.39,0,0,0,.47.27,5.51,5.51,0,0,1,.84.59.66.66,0,0,1,.12.33l.18.16a7.36,7.36,0,0,0-1.16,5.1l-.23.07a.72.72,0,0,1-.25.24,5,5,0,0,1-1,.17,4.9,4.9,0,0,0-.54,0l-.15,0h0a.57.57,0,0,0,.14,1.13l.11,0h0l.14,0a5.38,5.38,0,0,0,.51-.2,5.78,5.78,0,0,1,1-.29.66.66,0,0,1,.33.12l.25,0a7.39,7.39,0,0,0,3.26,4.07l-.11.24a.51.51,0,0,1,0,.32,5.52,5.52,0,0,1-.51.92q-.16.22-.3.45l-.07.15a.57.57,0,1,0,1,.59l0-.1h0l.07-.15a5,5,0,0,0,.16-.51,4.2,4.2,0,0,1,.44-1,.46.46,0,0,1,.24-.12l.13-.23a7.34,7.34,0,0,0,5.22,0,2,2,0,0,0,.12.22.48.48,0,0,1,.29.17,4.92,4.92,0,0,1,.38,1,5.08,5.08,0,0,0,.17.51l.07.15a.57.57,0,0,0,1.07-.38.31.31,0,0,0,0-.1l-.07-.16-.31-.45a6,6,0,0,1-.5-.89.45.45,0,0,1,.05-.34,1.6,1.6,0,0,1-.1-.23,7.38,7.38,0,0,0,3.26-4.1l.24,0a.47.47,0,0,1,.32-.12,4.8,4.8,0,0,1,1,.29l.51.2.15,0h0a.56.56,0,0,0,.71-.36.57.57,0,0,0-.36-.72l-.1,0Zm-5.37-5.76-2.42,1.71h0a.5.5,0,0,1-.69-.11.45.45,0,0,1-.1-.27h0l-.17-3a5.89,5.89,0,0,1,3.39,1.63Zm-4.55,3.25H60l.57.7-.2.88-.82.4-.82-.4-.2-.88Zm-.86-4.78c.2,0,.4-.08.6-.1l-.16,3h0a.5.5,0,0,1-.52.48.56.56,0,0,1-.27-.1h0l-2.43-1.72a5.81,5.81,0,0,1,2.8-1.53Zm-3.69,2.64,2.22,2v0a.49.49,0,0,1,.05.7.47.47,0,0,1-.24.15h0l-2.84.82a5.87,5.87,0,0,1,.82-3.68Zm3,5.27-1.13,2.73a5.81,5.81,0,0,1-2.35-2.93l2.91-.5h.11a.5.5,0,0,1,.49.5.58.58,0,0,1,0,.19Zm3.33,3.52a5.87,5.87,0,0,1-3.19-.17l1.44-2.59h0a.5.5,0,0,1,.68-.21.58.58,0,0,1,.2.21h0l1.44,2.6-.58.16Zm1.86-.77-1.14-2.76h0a.5.5,0,0,1,.24-.65.58.58,0,0,1,.19,0h.12l2.94.49a5.81,5.81,0,0,1-2.35,3Zm2.66-4.35-2.86-.82h0a.52.52,0,0,1-.35-.62.54.54,0,0,1,.16-.24h0l2.21-2a5.86,5.86,0,0,1,.85,3.67ZM34.69,328l.58-.64.59-.66.53-.62.43-.51H39.1c-.46.52-.9,1-1.33,1.49s-.91,1-1.42,1.47a8.82,8.82,0,0,1,.79.83c.28.32.54.65.8,1s.49.68.71,1,.39.65.54.94H37c-.13-.23-.29-.47-.46-.74s-.36-.55-.56-.82-.41-.53-.62-.77a6.55,6.55,0,0,0-.65-.64v3H32.78v-9.66l1.91-.31ZM45.85,332a8.82,8.82,0,0,1-1.26.27,10.84,10.84,0,0,1-1.62.12,3.9,3.9,0,0,1-1.43-.23,2.24,2.24,0,0,1-.9-.65,2.45,2.45,0,0,1-.48-1,5.38,5.38,0,0,1-.14-1.27v-3.76h1.91v3.53a2.78,2.78,0,0,0,.25,1.34,1,1,0,0,0,.91.41l.44,0,.41,0v-5.21h1.91Zm8.08-3.14a4,4,0,0,1-.24,1.46,3.07,3.07,0,0,1-.68,1.12,3,3,0,0,1-1.11.71,4,4,0,0,1-1.49.25l-.72,0-.75-.08-.7-.12-.59-.15v-9.44l1.91-.31v3.36a4,4,0,0,1,.67-.21,3.19,3.19,0,0,1,.75-.08,3.1,3.1,0,0,1,1.27.25,2.38,2.38,0,0,1,.92.71,3.35,3.35,0,0,1,.57,1.11,5.07,5.07,0,0,1,.19,1.45Zm-2,0c0-1.24-.46-1.85-1.36-1.85a2.32,2.32,0,0,0-.59.07,1.75,1.75,0,0,0-.47.2v3.48l.36,0a3.7,3.7,0,0,0,.48,0,1.36,1.36,0,0,0,1.18-.54A2.39,2.39,0,0,0,52,328.85Zm3.11.1a4,4,0,0,1,.27-1.57,3.38,3.38,0,0,1,.73-1.13,3,3,0,0,1,1-.68,3.28,3.28,0,0,1,1.2-.23,3,3,0,0,1,2.28.88,3.66,3.66,0,0,1,.83,2.59c0,.11,0,.23,0,.36s0,.25,0,.36H57.05a1.28,1.28,0,0,0,.55.93,2.18,2.18,0,0,0,1.31.35,6,6,0,0,0,1-.09,4.13,4.13,0,0,0,.83-.24L61,332a2.9,2.9,0,0,1-.41.16c-.19.05-.38.1-.57.13l-.67.1c-.24,0-.48,0-.72,0a4.33,4.33,0,0,1-1.59-.27,3.37,3.37,0,0,1-1.12-.74,2.91,2.91,0,0,1-.65-1.11,4.12,4.12,0,0,1-.21-1.39Zm4.49-.73a2,2,0,0,0-.08-.48,1.25,1.25,0,0,0-.22-.41,1.16,1.16,0,0,0-.37-.29,1.11,1.11,0,0,0-.56-.12,1.15,1.15,0,0,0-.55.11,1.24,1.24,0,0,0-.39.29,1.44,1.44,0,0,0-.24.42,3.37,3.37,0,0,0-.12.48Zm5.76-2.88a4.53,4.53,0,0,1,1.41.19,2.26,2.26,0,0,1,.9.55,2.13,2.13,0,0,1,.49.88,4.87,4.87,0,0,1,.14,1.14v4l-1.15.22a13,13,0,0,1-1.77.12,5.93,5.93,0,0,1-1.19-.12,2.35,2.35,0,0,1-.91-.38,1.78,1.78,0,0,1-.6-.68,2.5,2.5,0,0,1-.2-1,2,2,0,0,1,.24-1,1.79,1.79,0,0,1,.63-.65,3,3,0,0,1,.91-.36,4.79,4.79,0,0,1,1.07-.1,4.86,4.86,0,0,1,.66,0,2.43,2.43,0,0,1,.47.08V328a1,1,0,0,0-.3-.78,1.38,1.38,0,0,0-1-.3,7.91,7.91,0,0,0-1,.07,4.67,4.67,0,0,0-.82.2l-.24-1.54.42-.11c.16,0,.34-.07.54-.1l.62-.08c.22,0,.44,0,.67,0Zm.15,5.6H66l.41,0v-1.45a1.91,1.91,0,0,0-.35-.05l-.42,0-.51,0a1.48,1.48,0,0,0-.41.12.71.71,0,0,0-.29.25.64.64,0,0,0-.1.38.66.66,0,0,0,.3.63,1.82,1.82,0,0,0,.83.17ZM76,332.06l-.59.15-.7.12-.74.08-.73,0a4.19,4.19,0,0,1-1.49-.24,3.08,3.08,0,0,1-1.11-.7,3,3,0,0,1-.68-1.11,4,4,0,0,1-.24-1.45,4.67,4.67,0,0,1,.21-1.49,3.17,3.17,0,0,1,.59-1.12,2.44,2.44,0,0,1,.94-.71,3.1,3.1,0,0,1,1.28-.24,2.81,2.81,0,0,1,.71.08,3.69,3.69,0,0,1,.64.21v-3.05l1.91-.31Zm-4.33-3.21a2.39,2.39,0,0,0,.4,1.42,1.36,1.36,0,0,0,1.18.54,3.7,3.7,0,0,0,.48,0l.36,0v-3.48a1.75,1.75,0,0,0-.47-.2A2.32,2.32,0,0,0,73,327c-.9,0-1.36.61-1.36,1.85Zm9.84-.16a2.64,2.64,0,0,0-.24-1.31.87.87,0,0,0-.81-.38,2.3,2.3,0,0,0-.37,0l-.38,0v5.22H77.77v-6.53c.16,0,.35-.09.57-.13l.69-.13c.25,0,.5-.07.76-.09l.75,0a3,3,0,0,1,1.19.18,2.72,2.72,0,0,1,.75.45,3.52,3.52,0,0,1,1.93-.63,3.35,3.35,0,0,1,1.33.22,2,2,0,0,1,.83.64,2.47,2.47,0,0,1,.42,1,6.72,6.72,0,0,1,.12,1.26v3.82H85.19v-3.59a2.78,2.78,0,0,0-.23-1.31.89.89,0,0,0-.82-.38,1.55,1.55,0,0,0-.43.07,2.07,2.07,0,0,0-.46.2,3.24,3.24,0,0,1,.12.62c0,.22,0,.45,0,.7v3.69H81.48Z" transform="translate(5.68 -167.9)"/><path class="g" d="M49.78,169.91l2.48,1.36a1.15,1.15,0,0,0,1,0l2.48-1.36c.27-.15.27-.39,0-.54L53.25,168a1.22,1.22,0,0,0-1,0l-2.48,1.36c-.27.15-.27.39,0,.54" transform="translate(5.68 -167.9)"/><path class="h" d="M53,172.53v2.67c0,.32.22.45.49.3L56,174.14a1,1,0,0,0,.5-.83v-2.67c0-.31-.22-.44-.5-.3L53.5,171.7a1,1,0,0,0-.49.83" transform="translate(5.68 -167.9)"/><path class="g" d="M53.9,176.43l2.49,1.36a1.12,1.12,0,0,0,1,0l2.49-1.36c.27-.15.27-.39,0-.54l-2.49-1.36a1.12,1.12,0,0,0-1,0l-2.49,1.36c-.27.15-.27.39,0,.54" transform="translate(5.68 -167.9)"/><path class="h" d="M57.13,179.05v2.67c0,.31.22.44.49.29l2.49-1.36a1,1,0,0,0,.49-.83v-2.67c0-.31-.22-.44-.49-.29l-2.49,1.36a1,1,0,0,0-.49.83" transform="translate(5.68 -167.9)"/><path class="g" d="M57.85,183.08l2.49,1.36a1.12,1.12,0,0,0,1,0l2.49-1.36c.27-.15.27-.39,0-.54l-2.49-1.36a1.2,1.2,0,0,0-1,0l-2.49,1.36c-.27.15-.27.39,0,.54" transform="translate(5.68 -167.9)"/><path class="h" d="M61.08,185.7v2.67c0,.31.22.44.49.29l2.49-1.35a1,1,0,0,0,.49-.83V183.8c0-.31-.22-.44-.49-.29l-2.49,1.36a1,1,0,0,0-.49.83" transform="translate(5.68 -167.9)"/><path class="g" d="M50.79,183.08l2.49,1.36a1.12,1.12,0,0,0,1,0l2.49-1.36c.27-.15.27-.39,0-.54l-2.49-1.36a1.2,1.2,0,0,0-1,0l-2.49,1.36c-.27.15-.27.39,0,.54" transform="translate(5.68 -167.9)"/><path class="h" d="M54,185.7v2.67c0,.31.22.44.49.29L57,187.31a1,1,0,0,0,.49-.83V183.8c0-.31-.22-.44-.49-.29l-2.49,1.36a1,1,0,0,0-.49.83" transform="translate(5.68 -167.9)"/><path class="g" d="M46.8,176.43l2.48,1.36a1.15,1.15,0,0,0,1,0l2.48-1.36c.27-.15.27-.39,0-.54l-2.48-1.36a1.15,1.15,0,0,0-1,0l-2.48,1.36c-.27.15-.27.39,0,.54" transform="translate(5.68 -167.9)"/><path class="h" d="M50,179.05v2.67c0,.31.22.44.49.29L53,180.65a1,1,0,0,0,.5-.83v-2.67c0-.31-.22-.44-.5-.29l-2.48,1.36a1,1,0,0,0-.49.83" transform="translate(5.68 -167.9)"/><path class="g" d="M43.59,183.08l2.49,1.36a1.12,1.12,0,0,0,1,0l2.49-1.36c.27-.15.27-.39,0-.54l-2.49-1.36a1.2,1.2,0,0,0-1,0l-2.49,1.36c-.27.15-.27.39,0,.54" transform="translate(5.68 -167.9)"/><path class="h" d="M46.82,185.7v2.67c0,.31.22.44.49.29l2.49-1.35a1,1,0,0,0,.49-.83V183.8c0-.31-.22-.44-.49-.29l-2.49,1.36a1,1,0,0,0-.49.83" transform="translate(5.68 -167.9)"/><path class="g" d="M17.16,187.14a5.36,5.36,0,0,1,4.84,0l7.86,4.54a4.28,4.28,0,0,1,.78.6l9-4.9c1.84-1,1.84-2.63,0-3.63l-16.83-9.2a7.75,7.75,0,0,0-6.65,0L-.7,183.75c-1.84,1-1.84,2.63,0,3.63l9.13,5a4.1,4.1,0,0,1,.88-.7Z" transform="translate(5.68 -167.9)"/><path class="h" d="M41.3,190.31c-2.39,1.31-5.76,3.16-9.07,5a4.16,4.16,0,0,1,.05.6v9.07a5.32,5.32,0,0,1-2.42,4.19L22,213.67a4.71,4.71,0,0,1-.85.35v9.2c0,2.09,1.49,3,3.33,2L41.3,216a7,7,0,0,0,3.33-5.61v-18.1c0-2.09-1.49-3-3.33-2" transform="translate(5.68 -167.9)"/><path class="i" d="M9.31,209.13a5.32,5.32,0,0,1-2.42-4.19v-9.07a4.21,4.21,0,0,1,0-.5l-9.28-5.08c-1.84-1-3.33-.12-3.33,2v18.09A7,7,0,0,0-2.35,216l16.82,9.2c1.84,1,3.33.12,3.33-2V214a4,4,0,0,1-.64-.28l-7.85-4.54Z" transform="translate(5.68 -167.9)"/><path class="g" d="M27.26,206.14,21.59,203l-.82-.45a3,3,0,0,0-2.57,0l-.83.46-5.66,3.09c-.71.39-.71,1,0,1.41l6.09,3.32.4.23a3,3,0,0,0,2.57,0l.38-.21,6.11-3.34c.71-.39.71-1,0-1.41" transform="translate(5.68 -167.9)"/><path class="h" d="M16.91,200.2A2.73,2.73,0,0,0,18.2,198v-7c0-.81-.58-1.15-1.29-.76l-6.14,3.36-.35.19A2.72,2.72,0,0,0,9.14,196v7c0,.8.57,1.15,1.28.76l5.54-3,.95-.52" transform="translate(5.68 -167.9)"/><path class="i" d="M28.53,193.85l-.38-.21L22,190.3c-.71-.39-1.29-.05-1.29.76v7A2.72,2.72,0,0,0,22,200.21l1,.52,5.53,3c.71.38,1.29,0,1.29-.76v-7a2.73,2.73,0,0,0-1.29-2.16" transform="translate(5.68 -167.9)"/><path class="h" d="M-4.66,232.6H-3.1a1,1,0,0,1,1,1v4.91c0,.56.32.69.71.29L4,233.32a2.75,2.75,0,0,1,1.72-.72H8.16c.56,0,.69.32.3.72L3,238.84a1.27,1.27,0,0,0-.13,1.55L9,249.18c.32.45.13.82-.43.82H6.43a2.18,2.18,0,0,1-1.6-.83L.3,242.7a.82.82,0,0,0-1.3-.11l-.37.37a2.77,2.77,0,0,0-.72,1.73V249a1,1,0,0,1-1,1H-4.66a1,1,0,0,1-1-1V233.61a1,1,0,0,1,1-1h0m17,16.18a5.5,5.5,0,0,1-1.76-4.38V233.61a1,1,0,0,1,1-1h1.56a1,1,0,0,1,1,1h0V244.4a3.24,3.24,0,0,0,.75,2.22,3.3,3.3,0,0,0,2.57.85A3.29,3.29,0,0,0,20,246.6a3.17,3.17,0,0,0,.82-2.25V233.61a1,1,0,0,1,1-1h1.56a1,1,0,0,1,1,1h0V244.4a5.53,5.53,0,0,1-1.72,4.35,7.48,7.48,0,0,1-5.14,1.55,7.8,7.8,0,0,1-5.22-1.52m19.26-1.7h3.12a3,3,0,0,0,2-.64,2.47,2.47,0,0,0-.09-3.59,3.2,3.2,0,0,0-2.05-.64h-3a1,1,0,0,0-1,1h0v2.84a1,1,0,0,0,1,1h0m4.77-8a1.8,1.8,0,0,0,.72-1.55,2,2,0,0,0-.16-.84,2.41,2.41,0,0,0-1.41-1.1,4.13,4.13,0,0,0-1-.11H31.63a1,1,0,0,0-1,1h0v2.11a1,1,0,0,0,1,1H34.5a3.06,3.06,0,0,0,1.9-.54M28,232.6h6.9a8.65,8.65,0,0,1,2.52.33,4.8,4.8,0,0,1,1.77.93,4.15,4.15,0,0,1,1.41,3.26,3.21,3.21,0,0,1-.76,2.21,3.94,3.94,0,0,1-1.08.87c-.49.28-.94.42-.94.44s.45.15,1,.41A4.31,4.31,0,0,1,41.16,245a5,5,0,0,1-.39,2.1,4.08,4.08,0,0,1-1.17,1.53,5.52,5.52,0,0,1-1.91,1,8.45,8.45,0,0,1-2.55.36H28a1,1,0,0,1-1-1h0V233.61a1,1,0,0,1,1-1h0m16.24,0h11a1,1,0,0,1,1,1h0v.94a1,1,0,0,1-1,1h-7.4a1,1,0,0,0-1,1h0v1.87a1,1,0,0,0,1,1H54.1a1,1,0,0,1,1,1h0v.86a1,1,0,0,1-1,1H47.87a1,1,0,0,0-1,1h0V246a1,1,0,0,0,1,1h7.48a1,1,0,0,1,1,1h0V249a1,1,0,0,1-1,1H44.28a1,1,0,0,1-1-1h0V233.61a1,1,0,0,1,1-1h0m15.46,16.3a5.09,5.09,0,0,1-2-3.27.88.88,0,0,1,.91-1h1.49a1.42,1.42,0,0,1,1.24,1,2.55,2.55,0,0,0,.91,1.26,4.91,4.91,0,0,0,2.85.67,6.14,6.14,0,0,0,1.31-.12,3.51,3.51,0,0,0,1.09-.39,2.17,2.17,0,0,0,.75-.69,1.81,1.81,0,0,0,.29-1,1.66,1.66,0,0,0-.31-1.05,2.42,2.42,0,0,0-.88-.7,8,8,0,0,0-1.37-.48c-.54-.14-1.15-.28-1.82-.43s-1.54-.37-2.29-.59a7,7,0,0,1-1.93-.89,4.1,4.1,0,0,1-1.85-3.68,4.8,4.8,0,0,1,.51-2.26,4.73,4.73,0,0,1,1.41-1.64,6.58,6.58,0,0,1,2.14-1,10.64,10.64,0,0,1,2.73-.33,7.7,7.7,0,0,1,4.81,1.39,5,5,0,0,1,1.87,3,.84.84,0,0,1-.87,1H69.35a1.53,1.53,0,0,1-1.27-1,2.42,2.42,0,0,0-.83-1,4,4,0,0,0-2.33-.66,4.3,4.3,0,0,0-2.33.56,1.71,1.71,0,0,0-.86,1.48A1.61,1.61,0,0,0,62,238a1.93,1.93,0,0,0,.72.62,5.27,5.27,0,0,0,1.2.47c.48.13,1.05.26,1.71.41.86.18,1.72.4,2.56.65a8,8,0,0,1,2.11.93,4.39,4.39,0,0,1,1.42,1.49,4.54,4.54,0,0,1,.52,2.31,5.11,5.11,0,0,1-.52,2.35A4.93,4.93,0,0,1,70.24,249,6.56,6.56,0,0,1,68.07,250a10,10,0,0,1-2.75.36,9.16,9.16,0,0,1-5.59-1.49m19.35-8.07h2.7a3,3,0,0,0,2.14-.71,2.5,2.5,0,0,0,.73-1.9,2.42,2.42,0,0,0-.74-1.9,3,3,0,0,0-2.08-.66H79.08a1,1,0,0,0-1,1h0v3.13a1,1,0,0,0,1,1h0m-3.71-8.23h6.76a7.75,7.75,0,0,1,2.69.42,5.42,5.42,0,0,1,1.93,1.21A5.6,5.6,0,0,1,87.92,236a5.7,5.7,0,0,1,.42,2.22,6,6,0,0,1-.41,2.25,4.93,4.93,0,0,1-1.16,1.73,5.41,5.41,0,0,1-1.86,1.12,7.39,7.39,0,0,1-2.49.4H79.08a1,1,0,0,0-1,1h0V249a1,1,0,0,1-1,1H75.37a1,1,0,0,1-1-1h0V233.61a1,1,0,0,1,1-1h0m19.35,7.69h2.8a3.1,3.1,0,0,0,2.2-.67,2.25,2.25,0,0,0,.72-1.72,2.39,2.39,0,0,0-.69-1.76,2.9,2.9,0,0,0-2.13-.69h-2.9a1,1,0,0,0-1,1h0v2.81a1,1,0,0,0,1,1h0m-3.59-7.69h7.11a7.19,7.19,0,0,1,2.34.35,5.09,5.09,0,0,1,1.79,1,4.2,4.2,0,0,1,1.15,1.52,4.56,4.56,0,0,1,.41,2,4.47,4.47,0,0,1-.77,2.64,3.55,3.55,0,0,1-1.52,1.23c-.5.24-1,.36-1,.38a8.85,8.85,0,0,1,.94.41,3.33,3.33,0,0,1,.93.76,4.47,4.47,0,0,1,.83,2.37c.06.62.11,1.19.13,1.72s.06,1,.08,1.42c0,.2,0,.36,0,.63a1,1,0,0,1-1,1h-1.17c-.56,0-1,0-1.12-1,0-.12,0-.24,0-.37,0-.42-.08-.83-.11-1.25l-.1-1.38a3.29,3.29,0,0,0-.95-2.21,3.61,3.61,0,0,0-2.51-.76H94.72a1,1,0,0,0-1,1h0v5a1,1,0,0,1-1,1H91.13a1,1,0,0,1-1-1h0V233.61a1,1,0,0,1,1-1h0m20.6,11h2.65a.7.7,0,0,0,.71-1l-1.28-4q-.14-.41-.24-.81c-.07-.29-.14-.58-.23-.87s-.09-.33-.13-.5-.21-.29-.3,0-.1.34-.14.51-.17.58-.24.87a8.19,8.19,0,0,1-.23.81l-1.28,4a.7.7,0,0,0,.71,1m.52-11h1.68a1.54,1.54,0,0,1,1.36,1l5.55,15.5a.66.66,0,0,1-.67.95h-1.71a1.47,1.47,0,0,1-1.32-1l-.57-1.77a1.48,1.48,0,0,0-1.32-1h-4.36a1.48,1.48,0,0,0-1.32,1L109,249a1.45,1.45,0,0,1-1.31,1h-1.61a.67.67,0,0,1-.68-.95l5.49-15.5a1.52,1.52,0,0,1,1.35-1m12.33,9.8-4.91-8.91c-.27-.5,0-.89.53-.89h1.88a1.82,1.82,0,0,1,1.48.9l2.21,4.26.4.84.39.79c.06.14.12.28.19.42s.3.25.42,0l.21-.44c.11-.24.24-.51.38-.79s.27-.57.41-.84l2.16-4.26a1.81,1.81,0,0,1,1.47-.9h1.74c.56,0,.79.39.52.89l-4.91,8.91a4.65,4.65,0,0,0-.49,1.9V249a1,1,0,0,1-1,1h-1.56a1,1,0,0,1-1-1h0V244.3a4.65,4.65,0,0,0-.49-1.9" transform="translate(5.68 -167.9)"/><polygon class="j" points="425.12 41.24 414.77 33.48 414.77 40.6 366.62 40.6 366.62 41.89 414.77 41.89 414.77 49.01 425.12 41.24"/><polygon class="j" points="197.6 41.24 187.25 33.48 187.25 40.6 139.09 40.6 139.09 41.89 187.25 41.89 187.25 49.01 197.6 41.24"/><path class="k" d="M494.53,184.16a4.67,4.67,0,0,0-2.33-2.69L470,170.85a3.94,3.94,0,0,0-1.82-.37,7.38,7.38,0,0,0-1.81.15l-22.2,10.69A3.92,3.92,0,0,0,442,184L436.47,208a4.56,4.56,0,0,0,.8,3.49l15.35,19A5.27,5.27,0,0,0,456,232h24.52a3.6,3.6,0,0,0,3.35-1.53l15.35-19a4.91,4.91,0,0,0,.87-3.49Z" transform="translate(5.68 -167.9)"/><path class="b" d="M491,207h0c-.07,0-.07,0-.07-.08s-.22-.07-.29-.07a3.74,3.74,0,0,0-.88-.07.93.93,0,0,1-.43-.07h-.08a15.25,15.25,0,0,1-2.47-.44.86.86,0,0,1-.51-.51.07.07,0,0,0-.07-.07h0l-.58-.15a19.16,19.16,0,0,0-.29-6.4,19.87,19.87,0,0,0-2.55-6l.44-.43h0v-.08a1,1,0,0,1,.21-.65,12.4,12.4,0,0,1,2-1.38h0l.44-.22.8-.44c.07-.07.14-.07.22-.14l.07-.08h0a1.42,1.42,0,0,0,.29-2,1.36,1.36,0,0,0-1-.51,1.73,1.73,0,0,0-1,.36h0l-.07.07c-.07.08-.15.15-.22.15a4.85,4.85,0,0,0-.58.65c-.07.15-.22.22-.29.29h0a11.79,11.79,0,0,1-1.82,1.6,1,1,0,0,1-.44.15.45.45,0,0,1-.29-.07h0l-.58.43c-.58-.58-1.24-1.16-1.82-1.74a18.7,18.7,0,0,0-9.46-3.79l-.07-.58h0l-.07-.07a1,1,0,0,1-.37-.58,14.22,14.22,0,0,1,.15-2.48v-.07c0-.14.07-.29.07-.44s.07-.58.15-.87v-.44h0a1.33,1.33,0,0,0-1.24-1.45,1.64,1.64,0,0,0-1.16.44,1.39,1.39,0,0,0-.44,1h0v.37a3.76,3.76,0,0,0,.14.87.86.86,0,0,1,.08.44v.07a14.22,14.22,0,0,1,.14,2.47,1,1,0,0,1-.36.59l-.07.07h0l-.08.58c-.8.07-1.6.22-2.47.37a17.26,17.26,0,0,0-8.95,5.09l-.44-.29h-.07c-.07,0-.14.07-.29.07a.75.75,0,0,1-.44-.15,20.46,20.46,0,0,1-1.82-1.67h0a1,1,0,0,0-.29-.29c-.21-.22-.36-.44-.58-.65s-.14-.08-.22-.15l-.07-.07h0a1.72,1.72,0,0,0-1-.37,1.32,1.32,0,0,0-1.09.51,1.57,1.57,0,0,0,.29,2h0a.07.07,0,0,1,.07.07s.15.15.22.15a8.28,8.28,0,0,0,.8.43l.44.22h0a20.9,20.9,0,0,1,2,1.39.74.74,0,0,1,.22.65v.07h0l.43.44c-.07.15-.14.22-.22.36a17.26,17.26,0,0,0-2.47,11.94l-.58.14h0c0,.07-.08.07-.08.07a1.12,1.12,0,0,1-.5.51,13.25,13.25,0,0,1-2.48.44H447a1,1,0,0,0-.44.07c-.29,0-.58.08-.87.08-.07,0-.15.07-.29.07s-.07,0-.15.07h0a1.41,1.41,0,0,0-1.16,1.67,1.33,1.33,0,0,0,1.45,1,.7.7,0,0,0,.37-.07h0c.07,0,.07,0,.07-.07s.15-.08.29-.08a7.24,7.24,0,0,0,.8-.29,1.08,1.08,0,0,1,.44-.14h.07a12.74,12.74,0,0,1,2.33-.66h.07a.83.83,0,0,1,.58.22.07.07,0,0,1,.08.07h0l.65-.07a17.51,17.51,0,0,0,6,8.51,11,11,0,0,0,2,1.31l-.29.59h0a.07.07,0,0,0,.07.07.86.86,0,0,1,.08.73,12.14,12.14,0,0,1-1.17,2.11v.07a1.15,1.15,0,0,1-.29.36c-.14.15-.29.44-.51.73-.07.07-.07.15-.14.22a.07.07,0,0,1-.08.07h0a1.51,1.51,0,0,0,.59,2,1.38,1.38,0,0,0,.58.14,1.62,1.62,0,0,0,1.38-.87h0a.07.07,0,0,1,.07-.07c0-.08.08-.15.15-.22.07-.29.22-.51.29-.8l.15-.44h0a11.74,11.74,0,0,1,.94-2.25,1.16,1.16,0,0,1,.58-.44c.08,0,.08,0,.08-.07h0l.29-.59a17.09,17.09,0,0,0,6.33,1.17,18.14,18.14,0,0,0,3.93-.44,21.75,21.75,0,0,0,2.32-.65l.3.51h0c.07,0,.07,0,.07.07a1.12,1.12,0,0,1,.58.44c.36.72.66,1.45.95,2.18v.07l.14.44a2.71,2.71,0,0,0,.29.8c.08.07.08.14.15.22a.07.07,0,0,0,.07.07h0a1.62,1.62,0,0,0,1.38.87,1.81,1.81,0,0,0,.59-.14,1.22,1.22,0,0,0,.65-.8,2.22,2.22,0,0,0-.07-1.17h0c0-.07-.08-.07-.08-.07s-.07-.15-.14-.22a2.73,2.73,0,0,0-.51-.73,1.31,1.31,0,0,0-.29-.36v-.07a9.16,9.16,0,0,1-1.17-2.11.86.86,0,0,1,.08-.73.07.07,0,0,1,.07-.07h0l-.22-.59a18,18,0,0,0,7.93-9.89l.58.07h0a.07.07,0,0,0,.08-.07.79.79,0,0,1,.58-.22h.07a12,12,0,0,1,2.33.66H489a1.08,1.08,0,0,0,.44.14,3.22,3.22,0,0,0,.8.29c.07,0,.15.07.29.07s.07,0,.15.08h0a.66.66,0,0,0,.36.07,1.59,1.59,0,0,0,1.46-1A2,2,0,0,0,491,207Zm-21-2.26-2,.95-2-.95-.58-2.11,1.38-1.75h2.25l1.39,1.75ZM482,200a14.22,14.22,0,0,1,.29,4.59l-6.92-2h0a1.19,1.19,0,0,1-.87-1.45,1.16,1.16,0,0,1,.29-.51l5.46-5A15,15,0,0,1,482,200ZM478,193l-5.9,4.22a1.24,1.24,0,0,1-1.6-.29.7.7,0,0,1-.22-.51l-.43-7.35A13.88,13.88,0,0,1,478,193Zm-13.17-3.71,1.45-.29-.43,7.27h0a1.22,1.22,0,0,1-1.24,1.17,1.78,1.78,0,0,1-.58-.15l-5.9-4.29A13.86,13.86,0,0,1,464.85,189.33Zm-8.88,6.4,5.39,4.8h0a1.17,1.17,0,0,1,.14,1.67.8.8,0,0,1-.58.37l-7,2A14.74,14.74,0,0,1,456,195.73ZM454.73,208l7.21-1.24a1.18,1.18,0,0,1,1.23.94.83.83,0,0,1-.07.73h0l-2.76,6.7A14.34,14.34,0,0,1,454.73,208Zm16.52,9a15.31,15.31,0,0,1-3.2.36,16.12,16.12,0,0,1-4.58-.73l3.56-6.47a1.13,1.13,0,0,1,1.46-.29,3.72,3.72,0,0,1,.58.51h0l3.49,6.33A13,13,0,0,0,471.25,217.05Zm8.88-6.33a13.89,13.89,0,0,1-4.37,4.36l-2.84-6.76a1.24,1.24,0,0,1,.66-1.46,2.23,2.23,0,0,1,.65-.14l7.28,1.23A10.87,10.87,0,0,1,480.13,210.72Z" transform="translate(5.68 -167.9)"/><path class="l" d="M433.44,242.84c.21-.24.41-.47.64-.7s.43-.49.64-.72.41-.47.58-.68.35-.41.49-.57h2.49l-1.46,1.66c-.49.52-1,1.06-1.56,1.61a8.39,8.39,0,0,1,.88.91c.29.35.58.7.87,1.09s.55.76.78,1.13a11.54,11.54,0,0,1,.58,1H436c-.15-.25-.33-.51-.52-.8s-.41-.58-.6-.89-.45-.59-.7-.86a5.6,5.6,0,0,0-.7-.68v3.25h-2.1V237l2.1-.33v6.2" transform="translate(5.68 -167.9)"/><path class="l" d="M445.66,247.31a12,12,0,0,1-1.38.27,10.47,10.47,0,0,1-1.77.13,4.17,4.17,0,0,1-1.57-.25,2.49,2.49,0,0,1-1-.7,3,3,0,0,1-.53-1.11,5.86,5.86,0,0,1-.15-1.39v-4.11h2.1V244a2.92,2.92,0,0,0,.27,1.46,1.11,1.11,0,0,0,1,.47,4.18,4.18,0,0,0,.49,0,2.6,2.6,0,0,0,.44-.06v-5.72h2.1v7.16" transform="translate(5.68 -167.9)"/><path class="l" d="M452.39,243.81c0-1.36-.51-2-1.5-2a2.79,2.79,0,0,0-.64.07,1.64,1.64,0,0,0-.51.22v3.81l.39.06a4.35,4.35,0,0,0,.53,0,1.51,1.51,0,0,0,1.3-.59,2.78,2.78,0,0,0,.43-1.57m2.13.08a4.5,4.5,0,0,1-.27,1.61,3.18,3.18,0,0,1-.74,1.22,3.42,3.42,0,0,1-1.2.8,4.77,4.77,0,0,1-1.63.27c-.26,0-.53,0-.8,0l-.82-.07c-.25,0-.5-.08-.75-.14a3,3,0,0,1-.65-.19V237l2.1-.33v3.69a4,4,0,0,1,.74-.23,3.8,3.8,0,0,1,.82-.08,3.26,3.26,0,0,1,1.4.29,2.75,2.75,0,0,1,1,.78,3.36,3.36,0,0,1,.62,1.22,5.81,5.81,0,0,1,.17,1.58" transform="translate(5.68 -167.9)"/><path class="l" d="M455.79,243.92a4.77,4.77,0,0,1,.29-1.71,3.67,3.67,0,0,1,.8-1.24,3.17,3.17,0,0,1,1.12-.74,3.61,3.61,0,0,1,1.33-.25,3.26,3.26,0,0,1,2.48,1,4,4,0,0,1,.92,2.84,3.1,3.1,0,0,1,0,.41,2.75,2.75,0,0,0,0,.39h-4.76a1.36,1.36,0,0,0,.6,1A2.51,2.51,0,0,0,460,246a7,7,0,0,0,1.12-.09,5.73,5.73,0,0,0,.92-.27l.29,1.71a4.7,4.7,0,0,1-.45.17,3.67,3.67,0,0,1-.64.14l-.74.11c-.25,0-.52,0-.8,0a4.49,4.49,0,0,1-1.74-.29,3.36,3.36,0,0,1-1.23-.8,3.43,3.43,0,0,1-.72-1.22,7.73,7.73,0,0,1-.19-1.56m4.92-.79a1.66,1.66,0,0,0-.1-.53,1.18,1.18,0,0,0-.24-.44,1.14,1.14,0,0,0-.4-.33,1.38,1.38,0,0,0-1.21,0,1.27,1.27,0,0,0-.43.31,1.51,1.51,0,0,0-.27.46,2,2,0,0,0-.11.53h2.76" transform="translate(5.68 -167.9)"/><path class="l" d="M468.83,242c-.2,0-.41-.1-.66-.14a4.54,4.54,0,0,0-.82-.07,4.23,4.23,0,0,0-.48,0,1.85,1.85,0,0,0-.41.07v5.66h-2.1v-7a11.71,11.71,0,0,1,1.32-.37,6.62,6.62,0,0,1,1.71-.17l.41,0a2.1,2.1,0,0,1,.48.06l.49.07a1.59,1.59,0,0,1,.41.12l-.35,1.75" transform="translate(5.68 -167.9)"/><path class="l" d="M470.31,240.41a12,12,0,0,1,1.38-.29,10.44,10.44,0,0,1,1.76-.14,4.4,4.4,0,0,1,1.56.25,2.23,2.23,0,0,1,1,.68,2.83,2.83,0,0,1,.53,1.07,5.78,5.78,0,0,1,.15,1.38v4.18h-2.1v-3.91a3,3,0,0,0-.27-1.44,1.11,1.11,0,0,0-1-.42,4.18,4.18,0,0,0-.49,0,2.76,2.76,0,0,0-.44,0v5.71h-2.1l0-7.13" transform="translate(5.68 -167.9)"/><path class="l" d="M478.27,243.92a4.78,4.78,0,0,1,.3-1.71,3.64,3.64,0,0,1,.79-1.24,3.12,3.12,0,0,1,1.13-.74,3.56,3.56,0,0,1,1.32-.25,3.27,3.27,0,0,1,2.49,1,4,4,0,0,1,.91,2.84,3.1,3.1,0,0,1,0,.41c0,.15,0,.27,0,.39h-4.76a1.42,1.42,0,0,0,.6,1,2.53,2.53,0,0,0,1.44.38,7.17,7.17,0,0,0,1.13-.09,5.61,5.61,0,0,0,.91-.27l.3,1.71c-.14.07-.3.11-.45.17a3.88,3.88,0,0,1-.64.14l-.74.11c-.25,0-.53,0-.8,0a4.57,4.57,0,0,1-1.75-.29,3.4,3.4,0,0,1-1.22-.8,3.29,3.29,0,0,1-.72-1.22,5.66,5.66,0,0,1-.2-1.56m4.92-.79a1.66,1.66,0,0,0-.1-.53.91.91,0,0,0-.23-.46,1.17,1.17,0,0,0-.41-.33,1.36,1.36,0,0,0-1.2,0,1.18,1.18,0,0,0-.43.31,1.33,1.33,0,0,0-.27.46,2.53,2.53,0,0,0-.12.53l2.76,0" transform="translate(5.68 -167.9)"/><path class="l" d="M486.77,238.31l2.1-.33v2.17h2.52v1.75h-2.52v2.61a2,2,0,0,0,.23,1.05,1,1,0,0,0,.95.39,3.66,3.66,0,0,0,.68-.06,3.36,3.36,0,0,0,.66-.18l.29,1.64a7.66,7.66,0,0,1-.85.27,5.47,5.47,0,0,1-1.15.11,3.45,3.45,0,0,1-1.42-.23,2.31,2.31,0,0,1-.89-.64,2.79,2.79,0,0,1-.49-1,5.24,5.24,0,0,1-.11-1.3v-6.24" transform="translate(5.68 -167.9)"/><path class="l" d="M492.46,243.92a4.77,4.77,0,0,1,.29-1.71,3.82,3.82,0,0,1,.8-1.24,3.12,3.12,0,0,1,1.13-.74A3.56,3.56,0,0,1,496,240a3.28,3.28,0,0,1,2.49,1,4,4,0,0,1,.91,2.84,3.1,3.1,0,0,1,0,.41c0,.15,0,.27,0,.39H494.6a1.45,1.45,0,0,0,.6,1,2.53,2.53,0,0,0,1.44.38,7.17,7.17,0,0,0,1.13-.09,5.61,5.61,0,0,0,.91-.27l.29,1.71a4.49,4.49,0,0,1-.44.17,3.78,3.78,0,0,1-.65.14l-.73.11c-.26,0-.53,0-.8,0a4.54,4.54,0,0,1-1.75-.29,3.17,3.17,0,0,1-1.94-2,7.1,7.1,0,0,1-.2-1.56m4.94-.79a1.66,1.66,0,0,0-.1-.53,1.25,1.25,0,0,0-.23-.46,1.17,1.17,0,0,0-.41-.33,1.26,1.26,0,0,0-.6-.14,1.23,1.23,0,0,0-.6.14,1.1,1.1,0,0,0-.43.31,1.19,1.19,0,0,0-.27.46,2.53,2.53,0,0,0-.12.53l2.76,0" transform="translate(5.68 -167.9)"/><path class="l" d="M503.17,246.06A2.09,2.09,0,0,0,504,246a.45.45,0,0,0,.23-.43.5.5,0,0,0-.31-.43,4.53,4.53,0,0,0-1-.43,6.77,6.77,0,0,1-.9-.39,2.72,2.72,0,0,1-.68-.46,1.86,1.86,0,0,1-.42-.66,2.41,2.41,0,0,1-.16-.92,2,2,0,0,1,.78-1.65,3.32,3.32,0,0,1,2.12-.6,7.23,7.23,0,0,1,1.3.12,5.13,5.13,0,0,1,1,.25l-.37,1.63c-.27-.1-.52-.15-.8-.23a3.82,3.82,0,0,0-.95-.08q-1,0-1,.54a1,1,0,0,0,0,.24.61.61,0,0,0,.17.19c.08.06.2.12.33.2a4.42,4.42,0,0,0,.57.23,9.61,9.61,0,0,1,1.14.5,2.11,2.11,0,0,1,.7.55,1.48,1.48,0,0,1,.37.64,2.86,2.86,0,0,1,.12.82,1.85,1.85,0,0,1-.84,1.67,4.11,4.11,0,0,1-2.33.56,6.09,6.09,0,0,1-1.65-.17c-.31-.08-.6-.18-.89-.28l.35-1.71A5.85,5.85,0,0,0,502,246a9.69,9.69,0,0,0,1.13.08" transform="translate(5.68 -167.9)"/></svg>